<?xml version="1.0" encoding="UTF-8" standalone="no"?>
<!-- Generator: Adobe Illustrator 16.0.0, SVG Export Plug-In . SVG Version: 6.00 Build 0)  -->

<svg
   xmlns:dc="http://purl.org/dc/elements/1.1/"
   xmlns:cc="http://creativecommons.org/ns#"
   xmlns:rdf="http://www.w3.org/1999/02/22-rdf-syntax-ns#"
   xmlns:svg="http://www.w3.org/2000/svg"
   xmlns="http://www.w3.org/2000/svg"
   xmlns:xlink="http://www.w3.org/1999/xlink"
   xmlns:sodipodi="http://sodipodi.sourceforge.net/DTD/sodipodi-0.dtd"
   xmlns:inkscape="http://www.inkscape.org/namespaces/inkscape"
   version="1.1"
   id="Capa_1"
   x="0px"
   y="0px"
   width="97.968px"
   height="97.968px"
   viewBox="0 0 97.968 97.968"
   style="enable-background:new 0 0 97.968 97.968;"
   xml:space="preserve"
   sodipodi:docname="crowdanki.svg"
   inkscape:version="0.92.5 (2060ec1f9f, 2020-04-08)"><metadata
   id="metadata69"><rdf:RDF><cc:Work
       rdf:about=""><dc:format>image/svg+xml</dc:format><dc:type
         rdf:resource="http://purl.org/dc/dcmitype/StillImage" /><dc:title></dc:title></cc:Work></rdf:RDF></metadata><defs
   id="defs67"><linearGradient
     inkscape:collect="always"
     id="linearGradient4583"><stop
       style="stop-color:#000000;stop-opacity:1;"
       offset="0"
       id="stop4579" /><stop
       style="stop-color:#b3b3b3;stop-opacity:1"
       offset="1"
       id="stop4581" /></linearGradient><linearGradient
     inkscape:collect="always"
     xlink:href="#linearGradient4583"
     id="linearGradient4585"
     x1="52.835979"
     y1="75.219177"
     x2="52.689213"
     y2="21.5026"
     gradientUnits="userSpaceOnUse" /><linearGradient
     inkscape:collect="always"
     xlink:href="#linearGradient4583"
     id="linearGradient4587"
     gradientUnits="userSpaceOnUse"
     x1="52.835979"
     y1="75.219177"
     x2="52.689213"
     y2="21.5026" /><linearGradient
     inkscape:collect="always"
     xlink:href="#linearGradient4583"
     id="linearGradient4589"
     gradientUnits="userSpaceOnUse"
     x1="52.835979"
     y1="75.219177"
     x2="52.689213"
     y2="21.5026" /><linearGradient
     inkscape:collect="always"
     xlink:href="#linearGradient4583"
     id="linearGradient4591"
     gradientUnits="userSpaceOnUse"
     x1="52.835979"
     y1="75.219177"
     x2="52.689213"
     y2="21.5026" /><linearGradient
     inkscape:collect="always"
     xlink:href="#linearGradient4583"
     id="linearGradient4593"
     gradientUnits="userSpaceOnUse"
     x1="52.835979"
     y1="75.219177"
     x2="52.689213"
     y2="21.5026" /><linearGradient
     inkscape:collect="always"
     xlink:href="#linearGradient4583"
     id="linearGradient4595"
     gradientUnits="userSpaceOnUse"
     x1="52.835979"
     y1="75.219177"
     x2="52.689213"
     y2="21.5026" /><linearGradient
     inkscape:collect="always"
     xlink:href="#linearGradient4583"
     id="linearGradient4597"
     gradientUnits="userSpaceOnUse"
     x1="52.835979"
     y1="75.219177"
     x2="52.689213"
     y2="21.5026" /><linearGradient
     inkscape:collect="always"
     xlink:href="#linearGradient4583"
     id="linearGradient4599"
     gradientUnits="userSpaceOnUse"
     x1="52.835979"
     y1="75.219177"
     x2="52.689213"
     y2="21.5026" /><linearGradient
     inkscape:collect="always"
     xlink:href="#linearGradient4583"
     id="linearGradient4601"
     gradientUnits="userSpaceOnUse"
     x1="52.835979"
     y1="75.219177"
     x2="52.689213"
     y2="21.5026" /><linearGradient
     inkscape:collect="always"
     xlink:href="#linearGradient4583"
     id="linearGradient4603"
     gradientUnits="userSpaceOnUse"
     x1="52.835979"
     y1="75.219177"
     x2="52.689213"
     y2="21.5026" /><linearGradient
     inkscape:collect="always"
     xlink:href="#linearGradient4583"
     id="linearGradient4605"
     gradientUnits="userSpaceOnUse"
     x1="52.835979"
     y1="75.219177"
     x2="52.689213"
     y2="21.5026" /><linearGradient
     inkscape:collect="always"
     xlink:href="#linearGradient4583"
     id="linearGradient4607"
     gradientUnits="userSpaceOnUse"
     x1="52.835979"
     y1="75.219177"
     x2="52.689213"
     y2="21.5026" /><linearGradient
     inkscape:collect="always"
     xlink:href="#linearGradient4583"
     id="linearGradient4609"
     gradientUnits="userSpaceOnUse"
     x1="52.835979"
     y1="75.219177"
     x2="52.689213"
     y2="21.5026" /><linearGradient
     inkscape:collect="always"
     xlink:href="#linearGradient4583"
     id="linearGradient4611"
     gradientUnits="userSpaceOnUse"
     x1="52.835979"
     y1="75.219177"
     x2="52.689213"
     y2="21.5026" /><linearGradient
     inkscape:collect="always"
     xlink:href="#linearGradient4583"
     id="linearGradient4613"
     gradientUnits="userSpaceOnUse"
     x1="52.835979"
     y1="75.219177"
     x2="52.689213"
     y2="21.5026" /><linearGradient
     inkscape:collect="always"
     xlink:href="#linearGradient4583"
     id="linearGradient4615"
     gradientUnits="userSpaceOnUse"
     x1="52.835979"
     y1="75.219177"
     x2="52.689213"
     y2="21.5026" /><linearGradient
     inkscape:collect="always"
     xlink:href="#linearGradient4825"
     id="linearGradient5295"
     gradientUnits="userSpaceOnUse"
     x1="253.74718"
     y1="412.82977"
     x2="188.00023"
     y2="542.33295" /><linearGradient
     id="linearGradient4825"><stop
       id="stop4827"
       offset="0"
       style="stop-color:#0084dd;stop-opacity:1" /><stop
       id="stop4829"
       offset="1"
       style="stop-color:white;stop-opacity:1" /></linearGradient></defs><sodipodi:namedview
   pagecolor="#ffffff"
   bordercolor="#666666"
   borderopacity="1"
   objecttolerance="10"
   gridtolerance="10"
   guidetolerance="10"
   inkscape:pageopacity="0"
   inkscape:pageshadow="2"
   inkscape:window-width="3000"
   inkscape:window-height="1875"
   id="namedview65"
   showgrid="false"
   inkscape:zoom="6.813539"
   inkscape:cx="56.318513"
   inkscape:cy="43.316628"
   inkscape:window-x="-13"
   inkscape:window-y="-13"
   inkscape:window-maximized="1"
   inkscape:current-layer="Capa_1" />

<g
   id="g34">
</g>
<g
   id="g36">
</g>
<g
   id="g38">
</g>
<g
   id="g40">
</g>
<g
   id="g42">
</g>
<g
   id="g44">
</g>
<g
   id="g46">
</g>
<g
   id="g48">
</g>
<g
   id="g50">
</g>
<g
   id="g52">
</g>
<g
   id="g54">
</g>
<g
   id="g56">
</g>
<g
   id="g58">
</g>
<g
   id="g60">
</g>
<g
   id="g62">
</g>
<path
   transform="matrix(0.37364767,0.00218909,-0.00218909,0.37364767,-35.700001,-127.3565)"
   d="m 294.46869,523.45259 c -9.08043,8.81335 -45.57491,-17.76993 -58.10148,-15.97712 -12.52658,1.79282 -40.09949,37.54547 -51.28749,31.63294 -11.18801,-5.91252 2.81678,-48.83551 -2.75921,-60.19499 -5.57599,-11.35947 -48.09928,-26.53469 -45.93342,-39.00218 2.16586,-12.46749 47.31577,-12.41208 56.39619,-21.22544 9.08043,-8.81335 10.3725,-53.9448 22.89908,-55.73762 12.52657,-1.79281 26.42597,41.16443 37.61397,47.07695 11.188,5.91252 54.50984,-6.80503 60.08583,4.55445 5.57599,11.35947 -30.98363,37.85309 -33.14948,50.32059 -2.16586,12.46749 23.31643,49.73906 14.23601,58.55242 z"
   inkscape:randomized="0"
   inkscape:rounded="0.21"
   inkscape:flatsided="false"
   sodipodi:arg2="1.428641"
   sodipodi:arg1="0.80032243"
   sodipodi:r2="52"
   sodipodi:r1="94"
   sodipodi:cy="456"
   sodipodi:cx="229"
   sodipodi:sides="5"
   id="path4879"
   style="fill:url(#linearGradient5295);fill-opacity:1;stroke:#ffffff;stroke-width:15.98369503;stroke-miterlimit:4;stroke-dasharray:none;stroke-opacity:1"
   sodipodi:type="star" /><g
   id="g32"
   style="fill:url(#linearGradient4585);fill-opacity:1"
   transform="matrix(0.76924719,0,0,0.76924719,11.28769,24.831228)">
	<g
   id="g30"
   style="fill:url(#linearGradient4615);fill-opacity:1">
		<path
   d="m 49.541,38.655 c 1.617,0 3.158,0.338 4.559,0.946 0.105,-2.286 0.893,-4.4 2.157,-6.15 -0.89,-0.186 -1.808,-0.285 -2.748,-0.285 h -8.906 c -0.938,0 -1.856,0.098 -2.739,0.282 1.347,1.869 2.152,4.15 2.165,6.62 1.637,-0.9 3.515,-1.413 5.512,-1.413 z"
   id="path2"
   style="fill:url(#linearGradient4587);fill-opacity:1"
   inkscape:connector-curvature="0" />
		<circle
   cx="49.054001"
   cy="21.954"
   r="10.496"
   id="circle4"
   style="fill:url(#linearGradient4589);fill-opacity:1" />
		<path
   d="m 65.539,50.36 c 5.342,0 9.67,-4.33 9.67,-9.67 0,-5.342 -4.328,-9.67 -9.67,-9.67 -5.292,0 -9.583,4.251 -9.663,9.524 3.049,1.912 5.187,5.146 5.577,8.9 1.242,0.582 2.623,0.916 4.086,0.916 z"
   id="path6"
   style="fill:url(#linearGradient4591);fill-opacity:1"
   inkscape:connector-curvature="0" />
		<path
   d="m 32.571,31.019 c -5.343,0 -9.671,4.329 -9.671,9.67 0,5.341 4.328,9.669 9.671,9.669 1.892,0 3.651,-0.553 5.143,-1.492 0.475,-3.091 2.132,-5.794 4.499,-7.634 0.01,-0.181 0.027,-0.36 0.027,-0.543 0,-5.341 -4.33,-9.67 -9.669,-9.67 z"
   id="path8"
   style="fill:url(#linearGradient4593);fill-opacity:1"
   inkscape:connector-curvature="0" />
		<path
   d="m 71.82,30.813 c 3.049,1.912 5.187,5.146 5.576,8.901 1.241,0.581 2.623,0.916 4.086,0.916 5.342,0 9.67,-4.329 9.67,-9.67 0,-5.341 -4.328,-9.67 -9.67,-9.67 -5.291,-10e-4 -9.582,4.251 -9.662,9.523 z"
   id="path10"
   style="fill:url(#linearGradient4595);fill-opacity:1"
   inkscape:connector-curvature="0" />
		<circle
   cx="49.541"
   cy="50.673"
   r="9.6709995"
   id="circle12"
   style="fill:url(#linearGradient4597);fill-opacity:1" />
		<path
   d="m 69.643,51.019 h -8.144 c -0.089,3.258 -1.479,6.192 -3.679,8.301 6.068,1.806 10.509,7.434 10.509,14.082 v 3.092 c 8.04,-0.297 12.674,-2.573 12.979,-2.729 l 0.646,-0.328 h 0.067 V 63.401 C 82.023,56.573 76.469,51.019 69.643,51.019 Z"
   id="path14"
   style="fill:url(#linearGradient4599);fill-opacity:1"
   inkscape:connector-curvature="0" />
		<path
   d="m 85.585,41.289 h -8.142 c -0.088,3.258 -1.479,6.192 -3.678,8.301 6.068,1.806 10.508,7.433 10.508,14.081 v 3.092 c 8.039,-0.296 12.674,-2.572 12.979,-2.729 l 0.646,-0.327 h 0.069 V 53.671 c 0,-6.827 -5.554,-12.382 -12.382,-12.382 z"
   id="path16"
   style="fill:url(#linearGradient4601);fill-opacity:1"
   inkscape:connector-curvature="0" />
		<path
   d="m 41.256,59.319 c -2.189,-2.099 -3.575,-5.017 -3.677,-8.254 -0.301,-0.022 -0.6,-0.047 -0.908,-0.047 h -8.203 c -6.828,0 -12.383,5.555 -12.383,12.383 v 10.037 l 0.025,0.155 0.691,0.218 c 5.227,1.633 9.893,2.383 13.944,2.621 v -3.031 c 0.002,-6.647 4.441,-12.275 10.511,-14.082 z"
   id="path18"
   style="fill:url(#linearGradient4603);fill-opacity:1"
   inkscape:connector-curvature="0" />
		<path
   d="m 53.643,61.003 h -8.206 c -6.828,0 -12.383,5.557 -12.383,12.382 v 10.037 l 0.026,0.157 0.69,0.216 c 6.516,2.035 12.177,2.715 16.835,2.715 9.101,0 14.375,-2.595 14.701,-2.76 l 0.646,-0.328 H 66.02 V 73.385 C 66.023,66.558 60.469,61.003 53.643,61.003 Z"
   id="path20"
   style="fill:url(#linearGradient4605);fill-opacity:1"
   inkscape:connector-curvature="0" />
		<path
   d="m 16.486,40.938 c 1.463,0 2.844,-0.335 4.086,-0.916 0.39,-3.755 2.527,-6.99 5.576,-8.902 -0.08,-5.271 -4.371,-9.523 -9.662,-9.523 -5.343,0 -9.671,4.329 -9.671,9.671 0,5.341 4.328,9.67 9.671,9.67 z"
   id="path22"
   style="fill:url(#linearGradient4607);fill-opacity:1"
   inkscape:connector-curvature="0" />
		<path
   d="M 24.202,49.899 C 22.004,47.79 20.613,44.855 20.525,41.596 H 12.382 C 5.554,41.597 0,47.152 0,53.979 v 10.037 h 0.069 l 0.646,0.327 c 0.306,0.154 4.939,2.433 12.979,2.728 v -3.092 c 0,-6.647 4.439,-12.275 10.508,-14.08 z"
   id="path24"
   style="fill:url(#linearGradient4609);fill-opacity:1"
   inkscape:connector-curvature="0" />
		<path
   d="m 27.796,30.063 c 1.16,-0.47 2.93,-1.047 4.62,-1.047 1.967,0 3.891,0.506 5.607,1.469 0.382,-0.375 0.732,-0.783 1.05,-1.22 -1.63,-2.141 -2.52,-4.765 -2.52,-7.464 0,-1.818 0.406,-3.622 1.18,-5.261 -1.762,-1.592 -4.01,-2.461 -6.399,-2.461 -4.348,0 -8.133,2.943 -9.241,7.088 3.248,1.89 5.364,5.194 5.703,8.896 z"
   id="path26"
   style="fill:url(#linearGradient4611);fill-opacity:1"
   inkscape:connector-curvature="0" />
		<path
   d="m 59.117,28.718 c 0.336,0.534 0.729,1.037 1.175,1.505 1.588,-0.792 3.334,-1.208 5.092,-1.208 1.729,0 3.386,0.442 4.472,0.812 0.34,-4.013 2.767,-7.555 6.4,-9.35 -1.332,-3.805 -4.938,-6.402 -9.021,-6.402 -2.64,0 -5.14,1.084 -6.945,2.992 0.634,1.512 0.955,3.101 0.955,4.73 -10e-4,2.495 -0.735,4.873 -2.128,6.921 z"
   id="path28"
   style="fill:url(#linearGradient4613);fill-opacity:1"
   inkscape:connector-curvature="0" />
	</g>
</g></svg>